<?plantuml 1.2026.1?><svg xmlns="http://www.w3.org/2000/svg" xmlns:xlink="http://www.w3.org/1999/xlink" contentStyleType="text/css" data-diagram-type="DESCRIPTION" height="688px" preserveAspectRatio="none" style="width:443px;height:688px;background:#FFFFFF;" version="1.1" viewBox="0 0 443 688" width="443px" zoomAndPan="magnify"><defs/><g><!--cluster ???--><g class="cluster" data-qualified-name="..." data-source-line="1" id="ent0002"><path d="M8.5,314.602 L51.4998,314.602 A3.75,3.75 0 0 1 53.9998,317.102 L60.9998,339.6699 L117.5,339.6699 A2.5,2.5 0 0 1 120,342.1699 L120,415.102 A2.5,2.5 0 0 1 117.5,417.602 L8.5,417.602 A2.5,2.5 0 0 1 6,415.102 L6,317.102 A2.5,2.5 0 0 1 8.5,314.602" fill="none" style="stroke:#000000;stroke-width:1.5;"/><line style="stroke:#000000;stroke-width:1.5;" x1="6" x2="60.9998" y1="339.6699" y2="339.6699"/><text fill="#000000" font-family="sans-serif" font-size="14" font-weight="bold" lengthAdjust="spacing" textLength="41.9998" x="10" y="331.5679">&#35775;&#38382;&#32773;</text></g><!--cluster public/--><g class="cluster" data-qualified-name="public." data-source-line="4" id="ent0004"><path d="M160.5,468.602 L209.9398,468.602 A3.75,3.75 0 0 1 212.4398,471.102 L219.4398,493.6699 L297.5,493.6699 A2.5,2.5 0 0 1 300,496.1699 L300,679.102 A2.5,2.5 0 0 1 297.5,681.602 L160.5,681.602 A2.5,2.5 0 0 1 158,679.102 L158,471.102 A2.5,2.5 0 0 1 160.5,468.602" fill="none" style="stroke:#000000;stroke-width:1.5;"/><line style="stroke:#000000;stroke-width:1.5;" x1="158" x2="219.4398" y1="493.6699" y2="493.6699"/><text fill="#000000" font-family="sans-serif" font-size="14" font-weight="bold" lengthAdjust="spacing" textLength="48.4398" x="162" y="485.5679">public/</text></g><!--cluster docs/--><g class="cluster" data-qualified-name="docs." data-source-line="8" id="ent0007"><path d="M146.5,314.602 L184.9639,314.602 A3.75,3.75 0 0 1 187.4639,317.102 L194.4639,339.6699 L311.5,339.6699 A2.5,2.5 0 0 1 314,342.1699 L314,415.102 A2.5,2.5 0 0 1 311.5,417.602 L146.5,417.602 A2.5,2.5 0 0 1 144,415.102 L144,317.102 A2.5,2.5 0 0 1 146.5,314.602" fill="none" style="stroke:#000000;stroke-width:1.5;"/><line style="stroke:#000000;stroke-width:1.5;" x1="144" x2="194.4639" y1="339.6699" y2="339.6699"/><text fill="#000000" font-family="sans-serif" font-size="14" font-weight="bold" lengthAdjust="spacing" textLength="37.4639" x="148" y="331.5679">docs/</text></g><!--cluster codex-rules/--><g class="cluster" data-qualified-name="codex-rules." data-source-line="11" id="ent0009"><path d="M65.5,160.602 L152.9357,160.602 A3.75,3.75 0 0 1 155.4357,163.102 L162.4357,185.6699 L232.5,185.6699 A2.5,2.5 0 0 1 235,188.1699 L235,261.102 A2.5,2.5 0 0 1 232.5,263.602 L65.5,263.602 A2.5,2.5 0 0 1 63,261.102 L63,163.102 A2.5,2.5 0 0 1 65.5,160.602" fill="none" style="stroke:#000000;stroke-width:1.5;"/><line style="stroke:#000000;stroke-width:1.5;" x1="63" x2="162.4357" y1="185.6699" y2="185.6699"/><text fill="#000000" font-family="sans-serif" font-size="14" font-weight="bold" lengthAdjust="spacing" textLength="86.4357" x="67" y="177.5679">codex-rules/</text></g><!--cluster scripts/quality/--><g class="cluster" data-qualified-name="scripts.quality." data-source-line="14" id="ent0011"><path d="M283.5,160.602 L391.8376,160.602 A3.75,3.75 0 0 1 394.3376,163.102 L401.3376,185.6699 L406.5,185.6699 A2.5,2.5 0 0 1 409,188.1699 L409,261.102 A2.5,2.5 0 0 1 406.5,263.602 L283.5,263.602 A2.5,2.5 0 0 1 281,261.102 L281,163.102 A2.5,2.5 0 0 1 283.5,160.602" fill="none" style="stroke:#000000;stroke-width:1.5;"/><line style="stroke:#000000;stroke-width:1.5;" x1="281" x2="401.3376" y1="185.6699" y2="185.6699"/><text fill="#000000" font-family="sans-serif" font-size="14" font-weight="bold" lengthAdjust="spacing" textLength="107.3376" x="285" y="177.5679">scripts/quality/</text></g><!--cluster .github/--><g class="cluster" data-qualified-name=".github." data-source-line="17" id="ent0013"><path d="M281.5,6.602 L338.7378,6.602 A3.75,3.75 0 0 1 341.2378,9.102 L348.2378,31.6699 L408.5,31.6699 A2.5,2.5 0 0 1 411,34.1699 L411,107.102 A2.5,2.5 0 0 1 408.5,109.602 L281.5,109.602 A2.5,2.5 0 0 1 279,107.102 L279,9.102 A2.5,2.5 0 0 1 281.5,6.602" fill="none" style="stroke:#000000;stroke-width:1.5;"/><line style="stroke:#000000;stroke-width:1.5;" x1="279" x2="348.2378" y1="31.6699" y2="31.6699"/><text fill="#000000" font-family="sans-serif" font-size="14" font-weight="bold" lengthAdjust="spacing" textLength="56.2378" x="283" y="23.5679">.github/</text></g><!--entity Browser--><g class="entity" data-qualified-name="....Browser" data-source-line="2" id="ent0003"><rect fill="#F1F1F1" height="49.0679" rx="2.5" ry="2.5" style="stroke:#181818;stroke-width:0.5;" width="81.9998" x="22" y="352.602"/><rect fill="#F1F1F1" height="10" style="stroke:#181818;stroke-width:0.5;" width="15" x="83.9998" y="357.602"/><rect fill="#F1F1F1" height="2" style="stroke:#181818;stroke-width:0.5;" width="4" x="81.9998" y="359.602"/><rect fill="#F1F1F1" height="2" style="stroke:#181818;stroke-width:0.5;" width="4" x="81.9998" y="363.602"/><text fill="#000000" font-family="sans-serif" font-size="14" lengthAdjust="spacing" textLength="41.9998" x="37" y="387.5679">&#27983;&#35272;&#22120;</text></g><!--entity Index--><g class="entity" data-qualified-name="public..Index" data-source-line="5" id="ent0005"><rect fill="#F1F1F1" height="49.0679" rx="2.5" ry="2.5" style="stroke:#181818;stroke-width:0.5;" width="110.3357" x="174" y="506.602"/><rect fill="#F1F1F1" height="10" style="stroke:#181818;stroke-width:0.5;" width="15" x="264.3357" y="511.602"/><rect fill="#F1F1F1" height="2" style="stroke:#181818;stroke-width:0.5;" width="4" x="262.3357" y="513.602"/><rect fill="#F1F1F1" height="2" style="stroke:#181818;stroke-width:0.5;" width="4" x="262.3357" y="517.602"/><text fill="#000000" font-family="sans-serif" font-size="14" lengthAdjust="spacing" textLength="70.3357" x="189" y="541.5679">index.html</text></g><!--entity Styles--><g class="entity" data-qualified-name="public..Styles" data-source-line="6" id="ent0006"><rect fill="#F1F1F1" height="49.0679" rx="2.5" ry="2.5" style="stroke:#181818;stroke-width:0.5;" width="100.9978" x="178.5" y="616.602"/><rect fill="#F1F1F1" height="10" style="stroke:#181818;stroke-width:0.5;" width="15" x="259.4978" y="621.602"/><rect fill="#F1F1F1" height="2" style="stroke:#181818;stroke-width:0.5;" width="4" x="257.4978" y="623.602"/><rect fill="#F1F1F1" height="2" style="stroke:#181818;stroke-width:0.5;" width="4" x="257.4978" y="627.602"/><text fill="#000000" font-family="sans-serif" font-size="14" lengthAdjust="spacing" textLength="60.9978" x="193.5" y="651.5679">styles.css</text></g><!--entity Docs--><g class="entity" data-qualified-name="docs..Docs" data-source-line="9" id="ent0008"><rect fill="#F1F1F1" height="49.0679" rx="2.5" ry="2.5" style="stroke:#181818;stroke-width:0.5;" width="137.9996" x="160" y="352.602"/><rect fill="#F1F1F1" height="10" style="stroke:#181818;stroke-width:0.5;" width="15" x="277.9996" y="357.602"/><rect fill="#F1F1F1" height="2" style="stroke:#181818;stroke-width:0.5;" width="4" x="275.9996" y="359.602"/><rect fill="#F1F1F1" height="2" style="stroke:#181818;stroke-width:0.5;" width="4" x="275.9996" y="363.602"/><text fill="#000000" font-family="sans-serif" font-size="14" lengthAdjust="spacing" textLength="97.9996" x="175" y="387.5679">&#35774;&#35745;&#25991;&#26723;&#30495;&#30456;&#28304;</text></g><!--entity Rules--><g class="entity" data-qualified-name="codex-rules..Rules" data-source-line="12" id="ent0010"><rect fill="#F1F1F1" height="49.0679" rx="2.5" ry="2.5" style="stroke:#181818;stroke-width:0.5;" width="138.7976" x="79.5" y="198.602"/><rect fill="#F1F1F1" height="10" style="stroke:#181818;stroke-width:0.5;" width="15" x="198.2976" y="203.602"/><rect fill="#F1F1F1" height="2" style="stroke:#181818;stroke-width:0.5;" width="4" x="196.2976" y="205.602"/><rect fill="#F1F1F1" height="2" style="stroke:#181818;stroke-width:0.5;" width="4" x="196.2976" y="209.602"/><text fill="#000000" font-family="sans-serif" font-size="14" lengthAdjust="spacing" textLength="98.7976" x="94.5" y="233.5679">Agent &#25805;&#20316;&#35268;&#33539;</text></g><!--entity Quality--><g class="entity" data-qualified-name="scripts.quality..Quality" data-source-line="15" id="ent0012"><rect fill="#F1F1F1" height="49.0679" rx="2.5" ry="2.5" style="stroke:#181818;stroke-width:0.5;" width="95.9998" x="297" y="198.602"/><rect fill="#F1F1F1" height="10" style="stroke:#181818;stroke-width:0.5;" width="15" x="372.9998" y="203.602"/><rect fill="#F1F1F1" height="2" style="stroke:#181818;stroke-width:0.5;" width="4" x="370.9998" y="205.602"/><rect fill="#F1F1F1" height="2" style="stroke:#181818;stroke-width:0.5;" width="4" x="370.9998" y="209.602"/><text fill="#000000" font-family="sans-serif" font-size="14" lengthAdjust="spacing" textLength="55.9998" x="312" y="233.5679">&#36136;&#37327;&#38376;&#31105;</text></g><!--entity CI--><g class="entity" data-qualified-name=".github..CI" data-source-line="18" id="ent0014"><rect fill="#F1F1F1" height="49.0679" rx="2.5" ry="2.5" style="stroke:#181818;stroke-width:0.5;" width="99.2337" x="295.5" y="44.602"/><rect fill="#F1F1F1" height="10" style="stroke:#181818;stroke-width:0.5;" width="15" x="374.7337" y="49.602"/><rect fill="#F1F1F1" height="2" style="stroke:#181818;stroke-width:0.5;" width="4" x="372.7337" y="51.602"/><rect fill="#F1F1F1" height="2" style="stroke:#181818;stroke-width:0.5;" width="4" x="372.7337" y="55.602"/><text fill="#000000" font-family="sans-serif" font-size="14" lengthAdjust="spacing" textLength="59.2337" x="310.5" y="79.5679">CI &#24037;&#20316;&#27969;</text></g><!--link Browser to Index--><g class="link" data-entity-1="ent0003" data-entity-2="ent0005" data-link-type="dependency" data-source-line="21" id="lnk15"><path d="M88.94,401.852 C120.12,430.412 167.7151,473.9898 198.8151,502.4698" fill="none" id="Browser-to-Index" style="stroke:#181818;stroke-width:1;"/><polygon fill="#181818" points="203.24,506.522,199.304,497.4938,199.5526,503.1452,193.9012,503.3937,203.24,506.522" style="stroke:#181818;stroke-width:1;"/></g><!--link Index to Styles--><g class="link" data-entity-1="ent0005" data-entity-2="ent0006" data-link-type="dependency" data-source-line="22" id="lnk16"><path d="M229,555.802 C229,573.812 229,592.462 229,610.452" fill="none" id="Index-to-Styles" style="stroke:#181818;stroke-width:1;"/><polygon fill="#181818" points="229,616.452,233,607.452,229,611.452,225,607.452,229,616.452" style="stroke:#181818;stroke-width:1;"/></g><!--link Docs to Index--><g class="link" data-entity-1="ent0008" data-entity-2="ent0005" data-link-type="dependency" data-source-line="23" id="lnk17"><path d="M229,401.852 C229,430.412 229,472.042 229,500.522" fill="none" id="Docs-to-Index" style="stroke:#181818;stroke-width:1;"/><polygon fill="#181818" points="229,506.522,233,497.522,229,501.522,225,497.522,229,506.522" style="stroke:#181818;stroke-width:1;"/><text fill="#000000" font-family="sans-serif" font-size="13" lengthAdjust="spacing" textLength="91.0001" x="230" y="448.499">&#39537;&#21160;&#20869;&#23481;&#19982;&#32467;&#26500;</text></g><!--link Rules to Docs--><g class="link" data-entity-1="ent0010" data-entity-2="ent0008" data-link-type="dependency" data-source-line="24" id="lnk18"><path d="M142.9,247.892 C140.23,263.022 139.09,282.692 146,298.602 C155.5,320.482 169.8155,335.3321 187.2755,348.7721" fill="none" id="Rules-to-Docs" style="stroke:#181818;stroke-width:1;stroke-dasharray:7,7;"/><polygon fill="#181818" points="192.03,352.432,187.3381,343.7725,188.0679,349.3821,182.4583,350.1119,192.03,352.432" style="stroke:#181818;stroke-width:1;"/><text fill="#000000" font-family="sans-serif" font-size="13" lengthAdjust="spacing" textLength="39" x="147" y="294.499">&#19981;&#26367;&#20195;</text></g><!--link Quality to Docs--><g class="link" data-entity-1="ent0012" data-entity-2="ent0008" data-link-type="dependency" data-source-line="25" id="lnk19"><path d="M296.89,243.842 C266.14,256.942 231.25,272.912 227,279.602 C213.26,301.252 215.2702,325.6552 220.2302,346.4852" fill="none" id="Quality-to-Docs" style="stroke:#181818;stroke-width:1;"/><polygon fill="#181818" points="221.62,352.322,223.4264,342.6402,220.4618,347.458,215.644,344.4933,221.62,352.322" style="stroke:#181818;stroke-width:1;"/><text fill="#000000" font-family="sans-serif" font-size="13" lengthAdjust="spacing" textLength="113.6721" x="228" y="294.499">&#26657;&#39564;&#32034;&#24341;/&#38142;&#25509;/&#22865;&#32422;</text></g><!--link Quality to Index--><g class="link" data-entity-1="ent0012" data-entity-2="ent0005" data-link-type="dependency" data-source-line="26" id="lnk20"><path d="M349.7,247.652 C357.12,291.252 367.16,386.152 330,452.602 C317.32,475.272 300.0672,490.2232 279.6272,503.2732" fill="none" id="Quality-to-Index" style="stroke:#181818;stroke-width:1;"/><polygon fill="#181818" points="274.57,506.502,284.3083,505.0303,278.7843,503.8113,280.0032,498.2874,274.57,506.502" style="stroke:#181818;stroke-width:1;"/><text fill="#000000" font-family="sans-serif" font-size="13" lengthAdjust="spacing" textLength="78.0001" x="357" y="382.499">&#26657;&#39564;&#20837;&#21475;&#32467;&#26500;</text></g><!--link CI to Quality--><g class="link" data-entity-1="ent0014" data-entity-2="ent0012" data-link-type="dependency" data-source-line="27" id="lnk21"><path d="M345,93.852 C345,122.412 345,164.042 345,192.522" fill="none" id="CI-to-Quality" style="stroke:#181818;stroke-width:1;"/><polygon fill="#181818" points="345,198.522,349,189.522,345,193.522,341,189.522,345,198.522" style="stroke:#181818;stroke-width:1;"/><text fill="#000000" font-family="sans-serif" font-size="13" lengthAdjust="spacing" textLength="26" x="346" y="140.499">&#35302;&#21457;</text></g><?plantuml-src NP31Ji9048RlVOeDTzex1nB52qVrQ3oKqa1ZXTfjeyIOQ0Gn1gY4A34G54cXUcXY0X51uMMws-rRs2wjefTDPkV__dzc55uuu7CYY15xwRLjSbw9WLC6W3qyCSZe6ZrO-u27O5Cj7aDHPSuO9G8KFIDB0XVAfK9MF67psg5CzUcW3FwXLf95o0eGqlzTMgxRP8i2Z4o8lI1s7zzNSN_WTX_TpXJFRYctvQlMAQ7e-yTLtJUBu8sSMD00RjMThouPbKdjaf8x-hz0AAYIea7kIETbIIlzP8yjhsfuRSiTNb1mUzLVHzcSfENrJ8IaqW2zctuSdgoGLDfNC-6jG3oU3Ez0Nrg7-mVh_FP10dWlR-Z6GbSLP7yuquOxR-5UcQ6p0vPDqlrzcJEjuyxIcG-OS3fg4ZRnKzzxhRdZP_Hvntcj1MwO73ARxcpuHnr5hkIeOY9Z4ERv2mMAI9q0P3H4HlCR?></g></svg>