<?plantuml 1.2026.1?><svg xmlns="http://www.w3.org/2000/svg" xmlns:xlink="http://www.w3.org/1999/xlink" contentStyleType="text/css" data-diagram-type="DESCRIPTION" height="434px" preserveAspectRatio="none" style="width:1067px;height:434px;background:#FFFFFF;" version="1.1" viewBox="0 0 1067 434" width="1067px" zoomAndPan="magnify"><defs/><g><!--cluster Server--><g class="cluster" data-qualified-name="Server" data-source-line="7" id="ent0007"><polygon fill="none" points="16,20.55,26,10.55,771,10.55,771,231.55,761,241.55,16,241.55,16,20.55" style="stroke:#181818;stroke-width:1;"/><line style="stroke:#181818;stroke-width:1;" x1="761" x2="771" y1="20.55" y2="10.55"/><line style="stroke:#181818;stroke-width:1;" x1="16" x2="761" y1="20.55" y2="20.55"/><line style="stroke:#181818;stroke-width:1;" x1="761" x2="761" y1="20.55" y2="241.55"/><text fill="#000000" font-family="sans-serif" font-size="14" font-weight="bold" lengthAdjust="spacing" textLength="125.9995" x="326.5003" y="38.5159">&#19978;&#28023;&#36731;&#37327;&#24212;&#29992;&#26381;&#21153;&#22120;</text></g><!--entity Nginx--><g class="entity" data-qualified-name="Server.Nginx" data-source-line="8" id="ent0008"><rect fill="#F1F1F1" height="49.0679" rx="2.5" ry="2.5" style="stroke:#181818;stroke-width:0.5;" width="78.9198" x="341.5" y="176.05"/><rect fill="#F1F1F1" height="10" style="stroke:#181818;stroke-width:0.5;" width="15" x="400.4198" y="181.05"/><rect fill="#F1F1F1" height="2" style="stroke:#181818;stroke-width:0.5;" width="4" x="398.4198" y="183.05"/><rect fill="#F1F1F1" height="2" style="stroke:#181818;stroke-width:0.5;" width="4" x="398.4198" y="187.05"/><text fill="#000000" font-family="sans-serif" font-size="14" lengthAdjust="spacing" textLength="38.9198" x="356.5" y="211.0159">Nginx</text></g><!--entity Tat--><g class="entity" data-qualified-name="Server.Tat" data-source-line="9" id="ent0009"><rect fill="#F1F1F1" height="49.0679" rx="2.5" ry="2.5" style="stroke:#181818;stroke-width:0.5;" width="106.2197" x="32" y="61.05"/><rect fill="#F1F1F1" height="10" style="stroke:#181818;stroke-width:0.5;" width="15" x="118.2197" y="66.05"/><rect fill="#F1F1F1" height="2" style="stroke:#181818;stroke-width:0.5;" width="4" x="116.2197" y="68.05"/><rect fill="#F1F1F1" height="2" style="stroke:#181818;stroke-width:0.5;" width="4" x="116.2197" y="72.05"/><text fill="#000000" font-family="sans-serif" font-size="14" lengthAdjust="spacing" textLength="66.2197" x="47" y="96.0159">TAT agent</text></g><!--entity Deploy--><g class="entity" data-qualified-name="Server.Deploy" data-source-line="10" id="ent0010"><rect fill="#F1F1F1" height="68.1358" rx="2.5" ry="2.5" style="stroke:#181818;stroke-width:0.5;" width="123.9996" x="319" y="69.55"/><rect fill="#F1F1F1" height="10" style="stroke:#181818;stroke-width:0.5;" width="15" x="422.9996" y="74.55"/><rect fill="#F1F1F1" height="2" style="stroke:#181818;stroke-width:0.5;" width="4" x="420.9996" y="76.55"/><rect fill="#F1F1F1" height="2" style="stroke:#181818;stroke-width:0.5;" width="4" x="420.9996" y="80.55"/><text fill="#000000" font-family="sans-serif" font-size="14" lengthAdjust="spacing" textLength="76.9157" x="334" y="104.5159">root-owned</text><text fill="#000000" font-family="sans-serif" font-size="14" lengthAdjust="spacing" textLength="83.9996" x="334" y="123.5839">&#22266;&#23450;&#21457;&#24067;&#33050;&#26412;</text></g><!--entity Releases--><g class="entity" data-qualified-name="Server.Releases" data-source-line="11" id="ent0011"><path d="M627,67.05 L668,67.05 A3.75,3.75 0 0 1 670.5,69.55 L677.5,88.05 L750.7836,88.05 A2.5,2.5 0 0 1 753.2836,90.55 L753.2836,121.6179 A2.5,2.5 0 0 1 750.7836,124.1179 L627,124.1179 A2.5,2.5 0 0 1 624.5,121.6179 L624.5,69.55 A2.5,2.5 0 0 1 627,67.05" fill="#F1F1F1" style="stroke:#181818;stroke-width:0.5;"/><line style="stroke:#181818;stroke-width:0.5;" x1="624.5" x2="677.5" y1="88.05" y2="88.05"/><text fill="#000000" font-family="sans-serif" font-size="14" lengthAdjust="spacing" textLength="98.7836" x="634.5" y="110.0159">releases/&lt;sha&gt;</text></g><!--entity Current--><g class="entity" data-qualified-name="Server.Current" data-source-line="12" id="ent0012"><path d="M625.5,161.05 L666.5,161.05 A3.75,3.75 0 0 1 669,163.55 L676,182.05 L752.9656,182.05 A2.5,2.5 0 0 1 755.4656,184.55 L755.4656,215.6179 A2.5,2.5 0 0 1 752.9656,218.1179 L625.5,218.1179 A2.5,2.5 0 0 1 623,215.6179 L623,163.55 A2.5,2.5 0 0 1 625.5,161.05" fill="#F1F1F1" style="stroke:#181818;stroke-width:0.5;"/><line style="stroke:#181818;stroke-width:0.5;" x1="623" x2="676" y1="182.05" y2="182.05"/><text fill="#000000" font-family="sans-serif" font-size="14" lengthAdjust="spacing" textLength="102.4656" x="633" y="204.0159">current symlink</text></g><!--entity Browser--><g class="entity" data-qualified-name="Browser" data-source-line="2" id="ent0002"><ellipse cx="84.9998" cy="359.55" fill="#F1F1F1" rx="8" ry="8" style="stroke:#181818;stroke-width:0.5;"/><path d="M84.9998,367.55 L84.9998,394.55 M71.9998,375.55 L97.9998,375.55 M84.9998,394.55 L71.9998,409.55 M84.9998,394.55 L97.9998,409.55" fill="none" style="stroke:#181818;stroke-width:0.5;"/><text fill="#000000" font-family="sans-serif" font-size="14" lengthAdjust="spacing" textLength="83.9996" x="43" y="426.0159">&#35775;&#38382;&#32773;&#27983;&#35272;&#22120;</text></g><!--entity DNS--><g class="entity" data-qualified-name="DNS" data-source-line="3" id="ent0003"><path d="M348.9434,379.3329 C353.007,375.0802 357.0783,374.9815 360.0593,380.5573 C362.2206,374.8967 367.5714,373.0974 371.5424,378.7148 C375.089,374.5253 378.2987,374.7102 381.0992,379.5082 C383.7422,374.4518 388.7315,372.8328 392.5108,378.2728 C396.4684,372.5196 402.1412,372.7977 405.4115,379.0135 C409.0773,374.4522 413.7192,374.5528 415.9785,380.4365 C422.8784,384.1747 424.4893,390.6268 418.0367,396.1177 C426.0933,402.7419 425.746,408.394 415.9313,412.7569 C414.2831,418.5539 409.7552,418.8231 405.7356,415.3711 C403.6501,423.2476 398.325,423.3917 392.7261,419.1398 C391.229,424.8988 387.4606,427.9406 381.8102,423.652 C375.65,427.6141 371.8232,426.5232 369.8858,419.1929 C365.991,422.5335 360.7319,421.9155 359.6259,416.076 C355.0422,420.3759 351.0305,419.7274 348.5653,413.7876 C340.809,410.5075 339.0633,403.3731 345.7559,397.5873 C338.7464,391.2033 339.2126,382.7938 348.9434,379.3329" fill="#F1F1F1" style="stroke:#181818;stroke-width:0.5;"/><text fill="#000000" font-family="sans-serif" font-size="14" lengthAdjust="spacing" textLength="54.0958" x="354" y="401.0159">DNSPod</text></g><!--entity GitHub--><g class="entity" data-qualified-name="GitHub" data-source-line="4" id="ent0004"><path d="M635.3831,267.7225 C638.9639,258.7242 644.2363,258.8034 650.5037,265.0594 C653.5458,259.6971 658.9701,259.0342 662.6437,264.341 C666.6413,257.5315 672.8794,257.8733 677.1068,264.0858 C680.3787,256.9451 686.8609,256.1671 691.0978,263.1285 C695.6947,256.0369 700.2884,256.3456 704.3681,263.6068 C708.4784,258.188 712.2931,258.3675 715.8895,264.1361 C721.7415,258.557 726.9576,257.551 731.1829,265.9197 C735.0003,258.9518 740.6576,258.4943 744.8277,265.5772 C750.9471,269.7597 752.1254,275.707 744.9545,280.0063 C753.2859,282.8739 753.4645,287.2262 748.1576,293.3641 C753.837,298.3142 751.0997,303.7614 745.0284,305.7404 C751.4064,309.9771 750.7087,315.1475 744.046,318.3698 C741.8731,325.3734 736.2502,326.7009 731.0174,321.6875 C727.6039,328.5225 720.7473,329.3667 715.9779,323.2635 C712.7185,329.4152 708.9893,330.7644 703.4902,325.7737 C701.0636,332.6109 695.008,332.2186 690.8842,327.6494 C685.9881,332.4591 680.5114,331.8349 677.5114,325.3953 C672.2429,332.5018 666.0591,330.1212 663.0998,323.0483 C657.2902,330.1289 652.9754,328.1754 648.771,321.3896 C643.2805,326.2499 638.4859,326.9074 635.2224,319.0223 C629.2236,314.5426 627.4249,310.3006 634.4967,305.1377 C628.0478,302.4142 626.8994,296.2528 632.4043,291.672 C626.9047,288.208 627.938,282.8108 633.7385,280.7239 C628.2646,276.381 628.8334,270.5444 635.3831,267.7225" fill="#F1F1F1" style="stroke:#181818;stroke-width:0.5;"/><text fill="#000000" font-family="sans-serif" font-size="14" lengthAdjust="spacing" textLength="46.4938" x="642" y="287.5159">GitHub</text><text fill="#000000" font-family="sans-serif" font-size="14" lengthAdjust="spacing" textLength="93.7996" x="642" y="306.5839">&#20179;&#24211;&#19982; Actions</text></g><!--entity TencentApi--><g class="entity" data-qualified-name="TencentApi" data-source-line="5" id="ent0005"><path d="M964.4202,136.2109 C968.7891,130.5033 973.0592,130.1268 977.8734,135.6789 C983.1113,127.8128 988.6925,128.1781 993.0495,136.5045 C996.3399,129.5062 1001.9711,128.2668 1006.7038,135.0786 C1010.9006,128.6608 1016.3949,128.1764 1020.3989,135.2739 C1025.1622,129.363 1029.6356,130.1416 1033.2004,136.5221 C1037.3067,130.1859 1042.1482,129.4807 1046.4471,136.3286 C1056.4091,138.2377 1060.8521,143.23 1055.1904,153.2242 C1060.5498,163.0673 1058.0658,169.7787 1046.2172,170.8724 C1043.1846,176.8681 1037.317,177.0477 1033.2371,172.1164 C1030.2514,178.4261 1024.8267,180.0398 1020.4236,173.5336 C1016.3843,181.4654 1010.8587,182.769 1005.3408,174.9495 C1001.7482,180.4509 995.7862,179.99 992.8092,174.2625 C988.4204,180.932 981.5275,180.589 978.8458,172.6328 C973.9464,178.412 967.279,178.686 964.4368,170.5089 C952.6398,168.8616 950.597,162.2696 957.0781,152.9585 C950.5205,143.8828 954.9218,138.2477 964.4202,136.2109" fill="#F1F1F1" style="stroke:#181818;stroke-width:0.5;"/><text fill="#000000" font-family="sans-serif" font-size="14" lengthAdjust="spacing" textLength="67.8017" x="971" y="158.0159">&#33150;&#35759;&#20113; API</text></g><!--entity Acme--><g class="entity" data-qualified-name="Acme" data-source-line="6" id="ent0006"><path d="M48.9003,266.6248 C53.0434,260.795 57.422,259.1259 62.0841,266.0899 C65.6484,260.2265 71.0485,260.8328 74.5371,266.1741 C77.6125,261.0536 82.6504,259.6115 86.2157,265.6619 C89.4012,261.1007 93.8433,260.585 97.171,265.4975 C101.5917,258.5085 107.9166,258.9719 111.0185,266.7355 C115.2089,260.6647 119.9861,261.7279 122.8631,267.9962 C130.8313,270.0697 134.2151,275.7736 127.7207,282.6434 C134.9285,289.3644 133.8046,298.3621 123.1416,300.5006 C120.3534,307.445 115.631,307.3121 111.1102,302.2345 C109.2085,309.7083 102.4815,310.8041 97.7104,305.1672 C94.4788,311.8542 90.0569,311.8808 85.0192,307.1801 C80.7538,311.421 75.992,310.9694 74.5325,304.4465 C69.0542,310.1537 64.7043,308.2781 61.7742,301.7824 C57.1711,308.1074 52.8329,306.7124 48.8193,301.1405 C39.7218,297.7725 38.4179,290.094 46.2967,284.1983 C38.3707,278.0147 40.0918,270.3291 48.9003,266.6248" fill="#F1F1F1" style="stroke:#181818;stroke-width:0.5;"/><text fill="#000000" font-family="sans-serif" font-size="14" lengthAdjust="spacing" textLength="59.7098" x="55" y="288.0159">ACME CA</text></g><!--link Browser to DNS--><g class="link" data-entity-1="ent0002" data-entity-2="ent0003" data-link-type="dependency" data-source-line="15" id="lnk13"><path d="M127.24,395.36 C140.26,396.67 154.71,397.9 168,398.55 C227.38,401.44 290.2155,399.7467 332.9455,397.9167" fill="none" id="Browser-to-DNS" style="stroke:#181818;stroke-width:1;"/><polygon fill="#181818" points="338.94,397.66,329.7771,394.0488,333.9446,397.8739,330.1194,402.0414,338.94,397.66" style="stroke:#181818;stroke-width:1;"/><text fill="#000000" font-family="sans-serif" font-size="13" lengthAdjust="spacing" textLength="55.8871" x="201" y="394.447">DNS &#26597;&#35810;</text></g><!--link Browser to Nginx--><g class="link" data-entity-1="ent0002" data-entity-2="ent0008" data-link-type="dependency" data-source-line="16" id="lnk14"><path d="M127.1,372.99 C169.44,354.02 236.49,321.51 289,284.55 C313.97,266.98 335.0187,247.3237 352.5787,229.5037" fill="none" id="Browser-to-Nginx" style="stroke:#181818;stroke-width:1;"/><polygon fill="#181818" points="356.79,225.23,347.6238,228.833,353.2805,228.7914,353.3221,234.4481,356.79,225.23" style="stroke:#181818;stroke-width:1;"/><text fill="#000000" font-family="sans-serif" font-size="13" lengthAdjust="spacing" textLength="39.091" x="209" y="280.447">HTTPS</text></g><!--link Nginx to Current--><g class="link" data-entity-1="ent0008" data-entity-2="ent0012" data-link-type="dependency" data-source-line="17" id="lnk15"><path d="M420.51,199.38 C462.81,198.06 532.75,195.82 593,193.55 C602.65,193.19 606.855,193.0258 616.855,192.6158" fill="none" id="Nginx-to-Current" style="stroke:#181818;stroke-width:1;"/><polygon fill="#181818" points="622.85,192.37,613.6937,188.742,617.8542,192.5748,614.0214,196.7353,622.85,192.37" style="stroke:#181818;stroke-width:1;"/><text fill="#000000" font-family="sans-serif" font-size="13" lengthAdjust="spacing" textLength="78.0001" x="494" y="189.447">&#21482;&#35835;&#38745;&#24577;&#25991;&#20214;</text></g><!--link GitHub to TencentApi--><g class="link" data-entity-1="ent0004" data-entity-2="ent0005" data-link-type="dependency" data-source-line="18" id="lnk16"><path d="M751.29,264.42 C811.08,237.95 895.3234,200.6585 950.2234,176.3585" fill="none" id="GitHub-to-TencentApi" style="stroke:#181818;stroke-width:1;"/><polygon fill="#181818" points="955.71,173.93,945.8612,173.915,951.1379,175.9537,949.0991,181.2304,955.71,173.93" style="stroke:#181818;stroke-width:1;"/><text fill="#000000" font-family="sans-serif" font-size="13" lengthAdjust="spacing" textLength="137.7741" x="788" y="186.447">InvokeCommand(SHA)</text></g><!--link TencentApi to Tat--><g class="link" data-entity-1="ent0005" data-entity-2="ent0009" data-link-type="dependency" data-source-line="19" id="lnk17"><path d="M964.38,128.02 C920.82,102.61 847.84,64.56 779,49.55 C579.25,6 523.23,42.1 319,51.55 C251.71,54.66 234.41,53.27 168,64.55 C158.29,66.2 153.8802,67.0025 144.0502,69.3925" fill="none" id="TencentApi-to-Tat" style="stroke:#181818;stroke-width:1;"/><polygon fill="#181818" points="138.22,70.81,147.9102,72.5705,143.0785,69.6287,146.0202,64.797,138.22,70.81" style="stroke:#181818;stroke-width:1;"/><text fill="#000000" font-family="sans-serif" font-size="13" lengthAdjust="spacing" textLength="91.0001" x="487.5" y="25.447">&#25351;&#23450;&#23454;&#20363;&#19982;&#21629;&#20196;</text></g><!--link Tat to Deploy--><g class="link" data-entity-1="ent0009" data-entity-2="ent0010" data-link-type="dependency" data-source-line="20" id="lnk18"><path d="M138.22,88.75 C188.8,91.84 259.4712,96.1733 312.8712,99.4433" fill="none" id="Tat-to-Deploy" style="stroke:#181818;stroke-width:1;"/><polygon fill="#181818" points="318.86,99.81,310.1213,95.2674,313.8693,99.5044,309.6323,103.2524,318.86,99.81" style="stroke:#181818;stroke-width:1;"/><text fill="#000000" font-family="sans-serif" font-size="13" lengthAdjust="spacing" textLength="67.4571" x="195" y="87.447">&#20165;&#20256;&#20837; SHA</text></g><!--link Deploy to GitHub--><g class="link" data-entity-1="ent0010" data-entity-2="ent0004" data-link-type="dependency" data-source-line="21" id="lnk19"><path d="M424.69,137.84 C431.31,144.29 437.69,151.3 443,158.55 C462.03,184.55 448.84,203.23 473,224.55 C515.8,262.32 573.7789,277.8931 620.7989,285.0831" fill="none" id="Deploy-to-GitHub" style="stroke:#181818;stroke-width:1;"/><polygon fill="#181818" points="626.73,285.99,618.438,280.6756,621.7875,285.2342,617.2288,288.5836,626.73,285.99" style="stroke:#181818;stroke-width:1;"/><text fill="#000000" font-family="sans-serif" font-size="13" lengthAdjust="spacing" textLength="118.0531" x="474" y="220.447">&#25289;&#21462; main &#31934;&#30830; SHA</text></g><!--link Deploy to Releases--><g class="link" data-entity-1="ent0010" data-entity-2="ent0011" data-link-type="dependency" data-source-line="22" id="lnk20"><path d="M443.19,101.95 C495.69,100.58 565.072,98.7667 618.282,97.3767" fill="none" id="Deploy-to-Releases" style="stroke:#181818;stroke-width:1;"/><polygon fill="#181818" points="624.28,97.22,615.1786,93.4564,619.2817,97.3506,615.3875,101.4537,624.28,97.22" style="stroke:#181818;stroke-width:1;"/><text fill="#000000" font-family="sans-serif" font-size="13" lengthAdjust="spacing" textLength="65.0001" x="500.5" y="94.447">&#21019;&#24314;&#24182;&#26657;&#39564;</text></g><!--link Deploy to Current--><g class="link" data-entity-1="ent0010" data-entity-2="ent0012" data-link-type="dependency" data-source-line="23" id="lnk21"><path d="M443.19,120.75 C495.25,135.38 564.0437,154.7168 617.1737,169.6468" fill="none" id="Deploy-to-Current" style="stroke:#181818;stroke-width:1;"/><polygon fill="#181818" points="622.95,171.27,615.3677,164.9844,618.1364,169.9173,613.2035,172.6861,622.95,171.27" style="stroke:#181818;stroke-width:1;"/><text fill="#000000" font-family="sans-serif" font-size="13" lengthAdjust="spacing" textLength="82.8361" x="492" y="127.447">&#21407;&#23376;&#20999;&#25442;/&#22238;&#28378;</text></g><!--link Acme to Nginx--><g class="link" data-entity-1="ent0006" data-entity-2="ent0008" data-link-type="dependency" data-source-line="24" id="lnk22"><path d="M130.01,270.27 C187.36,254.28 280.9504,228.1714 335.5404,212.9514" fill="none" id="Acme-to-Nginx" style="stroke:#181818;stroke-width:1;"/><polygon fill="#181818" points="341.32,211.34,331.5764,209.904,336.5037,212.6828,333.7249,217.6101,341.32,211.34" style="stroke:#181818;stroke-width:1;"/><text fill="#000000" font-family="sans-serif" font-size="13" lengthAdjust="spacing" textLength="119.3921" x="169" y="223.447">HTTP-01 &#19982;&#35777;&#20070;&#32493;&#26399;</text></g><?plantuml-src PPBDRjD058NtynHNNi4YAcmHgcG28brGHIJBRemzJQtQCv7jj5G8gHL42VqBKQkY9g5fAWfLHHq9gIMDQNWPpyHv2yRZH2ImiSRtV3xttZEsyB877WN7BAnuO9WErZsJ4gJf7dL0YVpVeqz-j5dcrxNeMvKTNoYWkV34eUikTf1kqP81ojF5N9OQKX77IVMvwMLAhvP861om_a7OsmTLUhiIJDG96vK7aTyD-tLGimjIpsEYO-AfHNF2gEaNpo2jIbNLROm8DJ0eOM-RN_-Cxe9HfSRwXyF32zxQOzkToQmvxAnX1zuW09tQHKg4AoYB1PEybheypOfvDGzQGHoJIJHlLdOezL9qdM1ZYR1cd_aDLgkpthleVOEtlYSnuA95DyHdozGoH7V5mHRMNEpEFNPNj7d9l1oNfYYzv3Xn2tV3jaooAh5qKaDl4Hh73gdKV1mqF99FtZwFkcSpejn9o9byFfj3oLjS7ti9XTKkesum-dpCDxVuKIKCRb1o8vBx6xv05yWQNSLfQjiQCUxbCkfzDALBN8ij-MubZi8_2GSxuhPP_IuClg1Oa_FAH0GM1kNmroahduEmGkDoJ8px2wET3wns1BPc4XZ-60mx_h_e9BfuaMgJ1NrsUyDFEwFBtMbgQjlzDhlwoAeLldSsnvedF6YW-1VwBwpKWuSWPe-wM-7jrs5mnLljFm00?></g></svg>