<?plantuml 1.2026.1?><svg xmlns="http://www.w3.org/2000/svg" xmlns:xlink="http://www.w3.org/1999/xlink" contentStyleType="text/css" data-diagram-type="DESCRIPTION" height="649px" preserveAspectRatio="none" style="width:1820px;height:649px;background:#FFFFFF;" version="1.1" viewBox="0 0 1820 649" width="1820px" zoomAndPan="magnify"><defs/><g><!--cluster Server--><g class="cluster" data-qualified-name="Server" data-source-line="8" id="ent0008"><polygon fill="none" points="621.6006,110,631.6006,100,1803.1006,100,1803.1006,501,1793.1006,511,621.6006,511,621.6006,110" style="stroke:#181818;stroke-width:1;"/><line style="stroke:#181818;stroke-width:1;" x1="1793.1006" x2="1803.1006" y1="110" y2="100"/><line style="stroke:#181818;stroke-width:1;" x1="621.6006" x2="1793.1006" y1="110" y2="110"/><line style="stroke:#181818;stroke-width:1;" x1="1793.1006" x2="1793.1006" y1="110" y2="511"/><text fill="#000000" font-family="sans-serif" font-size="14" font-weight="bold" lengthAdjust="spacing" textLength="125.9995" x="1145.3508" y="127.9659">&#19978;&#28023;&#36731;&#37327;&#24212;&#29992;&#26381;&#21153;&#22120;</text></g><!--entity Nginx--><g class="entity" data-qualified-name="Server.Nginx" data-source-line="9" id="ent0009"><rect fill="#F1F1F1" height="49.0679" rx="2.5" ry="2.5" style="stroke:#181818;stroke-width:0.5;" width="78.9198" x="1329.6006" y="334.5"/><rect fill="#F1F1F1" height="10" style="stroke:#181818;stroke-width:0.5;" width="15" x="1388.5204" y="339.5"/><rect fill="#F1F1F1" height="2" style="stroke:#181818;stroke-width:0.5;" width="4" x="1386.5204" y="341.5"/><rect fill="#F1F1F1" height="2" style="stroke:#181818;stroke-width:0.5;" width="4" x="1386.5204" y="345.5"/><text fill="#000000" font-family="sans-serif" font-size="14" lengthAdjust="spacing" textLength="38.9198" x="1344.6006" y="369.4659">Nginx</text></g><!--entity Tat--><g class="entity" data-qualified-name="Server.Tat" data-source-line="10" id="ent0010"><rect fill="#F1F1F1" height="49.0679" rx="2.5" ry="2.5" style="stroke:#181818;stroke-width:0.5;" width="106.2197" x="637.6006" y="440.5"/><rect fill="#F1F1F1" height="10" style="stroke:#181818;stroke-width:0.5;" width="15" x="723.8203" y="445.5"/><rect fill="#F1F1F1" height="2" style="stroke:#181818;stroke-width:0.5;" width="4" x="721.8203" y="447.5"/><rect fill="#F1F1F1" height="2" style="stroke:#181818;stroke-width:0.5;" width="4" x="721.8203" y="451.5"/><text fill="#000000" font-family="sans-serif" font-size="14" lengthAdjust="spacing" textLength="66.2197" x="652.6006" y="475.4659">TAT agent</text></g><!--entity Deploy--><g class="entity" data-qualified-name="Server.Deploy" data-source-line="11" id="ent0011"><rect fill="#F1F1F1" height="68.1358" rx="2.5" ry="2.5" style="stroke:#181818;stroke-width:0.5;" width="123.9996" x="964.1006" y="400"/><rect fill="#F1F1F1" height="10" style="stroke:#181818;stroke-width:0.5;" width="15" x="1068.1002" y="405"/><rect fill="#F1F1F1" height="2" style="stroke:#181818;stroke-width:0.5;" width="4" x="1066.1002" y="407"/><rect fill="#F1F1F1" height="2" style="stroke:#181818;stroke-width:0.5;" width="4" x="1066.1002" y="411"/><text fill="#000000" font-family="sans-serif" font-size="14" lengthAdjust="spacing" textLength="76.9157" x="979.1006" y="434.9659">root-owned</text><text fill="#000000" font-family="sans-serif" font-size="14" lengthAdjust="spacing" textLength="83.9996" x="979.1006" y="454.0339">&#22266;&#23450;&#21457;&#24067;&#33050;&#26412;</text></g><!--entity Releases--><g class="entity" data-qualified-name="Server.Releases" data-source-line="12" id="ent0012"><path d="M1640.6006,321 L1681.6006,321 A3.75,3.75 0 0 1 1684.1006,323.5 L1691.1006,342 L1784.3341,342 A2.5,2.5 0 0 1 1786.8341,344.5 L1786.8341,394.6358 A2.5,2.5 0 0 1 1784.3341,397.1358 L1640.6006,397.1358 A2.5,2.5 0 0 1 1638.1006,394.6358 L1638.1006,323.5 A2.5,2.5 0 0 1 1640.6006,321" fill="#F1F1F1" style="stroke:#181818;stroke-width:0.5;"/><line style="stroke:#181818;stroke-width:0.5;" x1="1638.1006" x2="1691.1006" y1="342" y2="342"/><text fill="#000000" font-family="sans-serif" font-size="14" lengthAdjust="spacing" textLength="98.7836" x="1648.1006" y="363.9659">releases/&lt;sha&gt;</text><text fill="#000000" font-family="sans-serif" font-size="14" lengthAdjust="spacing" textLength="118.7335" x="1648.1006" y="383.0339">payload/ + config/</text></g><!--entity Current--><g class="entity" data-qualified-name="Server.Current" data-source-line="13" id="ent0013"><path d="M1305.6006,419 L1346.6006,419 A3.75,3.75 0 0 1 1349.1006,421.5 L1356.1006,440 L1433.0662,440 A2.5,2.5 0 0 1 1435.5662,442.5 L1435.5662,492.6358 A2.5,2.5 0 0 1 1433.0662,495.1358 L1305.6006,495.1358 A2.5,2.5 0 0 1 1303.1006,492.6358 L1303.1006,421.5 A2.5,2.5 0 0 1 1305.6006,419" fill="#F1F1F1" style="stroke:#181818;stroke-width:0.5;"/><line style="stroke:#181818;stroke-width:0.5;" x1="1303.1006" x2="1356.1006" y1="440" y2="440"/><text fill="#000000" font-family="sans-serif" font-size="14" lengthAdjust="spacing" textLength="102.4656" x="1313.1006" y="461.9659">current symlink</text><text fill="#000000" font-family="sans-serif" font-size="14" lengthAdjust="spacing" textLength="97.9996" x="1313.1006" y="481.0339">&#37197;&#32622;&#35299;&#26512;&#26102;&#36873;&#20195;</text></g><!--entity UrlLedger--><g class="entity" data-qualified-name="Server.UrlLedger" data-source-line="14" id="ent0014"><path d="M1316.1006,242.5 C1316.1006,232.5 1369.0594,232.5 1369.0594,232.5 C1369.0594,232.5 1422.0182,232.5 1422.0182,242.5 L1422.0182,289.6358 C1422.0182,299.6358 1369.0594,299.6358 1369.0594,299.6358 C1369.0594,299.6358 1316.1006,299.6358 1316.1006,289.6358 L1316.1006,242.5" fill="#F1F1F1" style="stroke:#181818;stroke-width:0.5;"/><path d="M1316.1006,242.5 C1316.1006,252.5 1369.0594,252.5 1369.0594,252.5 C1369.0594,252.5 1422.0182,252.5 1422.0182,242.5" fill="none" style="stroke:#181818;stroke-width:0.5;"/><text fill="#000000" font-family="sans-serif" font-size="14" lengthAdjust="spacing" textLength="76.9157" x="1326.1006" y="271.4659">root-owned</text><text fill="#000000" font-family="sans-serif" font-size="14" lengthAdjust="spacing" textLength="85.9176" x="1326.1006" y="290.5339">URL &#26292;&#38706;&#36134;&#26412;</text></g><!--entity Browser--><g class="entity" data-qualified-name="Browser" data-source-line="2" id="ent0002"><ellipse cx="1026.1004" cy="14" fill="#F1F1F1" rx="8" ry="8" style="stroke:#181818;stroke-width:0.5;"/><path d="M1026.1004,22 L1026.1004,49 M1013.1004,30 L1039.1004,30 M1026.1004,49 L1013.1004,64 M1026.1004,49 L1039.1004,64" fill="none" style="stroke:#181818;stroke-width:0.5;"/><text fill="#000000" font-family="sans-serif" font-size="14" lengthAdjust="spacing" textLength="83.9996" x="984.1006" y="80.4659">&#35775;&#38382;&#32773;&#27983;&#35272;&#22120;</text></g><!--entity DNS--><g class="entity" data-qualified-name="DNS" data-source-line="3" id="ent0003"><path d="M1337.0439,28.7829 C1341.1075,24.5302 1345.1789,24.4315 1348.1598,30.0073 C1350.3211,24.3467 1355.672,22.5474 1359.6429,28.1648 C1363.1896,23.9753 1366.3993,24.1602 1369.1998,28.9582 C1371.8428,23.9018 1376.8321,22.2828 1380.6114,27.7228 C1384.5689,21.9696 1390.2417,22.2477 1393.5121,28.4635 C1397.1779,23.9022 1401.8197,24.0028 1404.079,29.8865 C1410.979,33.6247 1412.5899,40.0768 1406.1373,45.5677 C1414.1939,52.1919 1413.8466,57.844 1404.0319,62.2069 C1402.3837,68.0039 1397.8558,68.2731 1393.8362,64.8211 C1391.7507,72.6976 1386.4256,72.8417 1380.8267,68.5898 C1379.3295,74.3488 1375.5611,77.3906 1369.9107,73.102 C1363.7505,77.0641 1359.9237,75.9732 1357.9864,68.6429 C1354.0916,71.9835 1348.8324,71.3655 1347.7265,65.526 C1343.1428,69.8259 1339.1311,69.1774 1336.6659,63.2376 C1328.9096,59.9575 1327.1639,52.8231 1333.8565,47.0373 C1326.847,40.6533 1327.3132,32.2438 1337.0439,28.7829" fill="#F1F1F1" style="stroke:#181818;stroke-width:0.5;"/><text fill="#000000" font-family="sans-serif" font-size="14" lengthAdjust="spacing" textLength="54.0958" x="1342.1006" y="50.4659">DNSPod</text></g><!--entity GitHub--><g class="entity" data-qualified-name="GitHub" data-source-line="4" id="ent0004"><path d="M14.4837,577.1725 C18.0645,568.1742 23.3369,568.2534 29.6043,574.5094 C32.6464,569.1471 38.0707,568.4842 41.7442,573.791 C45.7419,566.9815 51.98,567.3233 56.2074,573.5358 C59.4793,566.3951 65.9615,565.6171 70.1983,572.5785 C74.7953,565.4869 79.389,565.7956 83.4687,573.0568 C87.579,567.638 91.3936,567.8175 94.99,573.5861 C100.8421,568.007 106.0582,567.001 110.2835,575.3697 C114.1009,568.4018 119.7582,567.9443 123.9283,575.0272 C130.0477,579.2097 131.226,585.157 124.0551,589.4563 C132.3864,592.3239 132.565,596.6762 127.2582,602.8141 C132.9375,607.7642 130.2002,613.2114 124.129,615.1904 C130.507,619.4271 129.8093,624.5975 123.1466,627.8198 C120.9737,634.8234 115.3508,636.1509 110.1179,631.1375 C106.7045,637.9725 99.8478,638.8167 95.0785,632.7135 C91.8191,638.8652 88.0899,640.2144 82.5907,635.2237 C80.1641,642.0609 74.1086,641.6686 69.9848,637.0994 C65.0886,641.9091 59.612,641.2849 56.612,634.8453 C51.3435,641.9518 45.1597,639.5712 42.2003,632.4983 C36.3908,639.5789 32.0759,637.6254 27.8715,630.8396 C22.3811,635.6999 17.5864,636.3574 14.323,628.4723 C8.3241,623.9926 6.5255,619.7506 13.5973,614.5877 C7.1483,611.8642 6,605.7028 11.5049,601.122 C6.0052,597.658 7.0386,592.2608 12.839,590.1739 C7.3652,585.831 7.934,579.9944 14.4837,577.1725" fill="#F1F1F1" style="stroke:#181818;stroke-width:0.5;"/><text fill="#000000" font-family="sans-serif" font-size="14" lengthAdjust="spacing" textLength="46.4938" x="21.1006" y="596.9659">GitHub</text><text fill="#000000" font-family="sans-serif" font-size="14" lengthAdjust="spacing" textLength="93.7996" x="21.1006" y="616.0339">&#20179;&#24211;&#19982; Actions</text></g><!--entity Artifact--><g class="entity" data-qualified-name="Artifact" data-source-line="5" id="ent0005"><rect fill="#F1F1F1" height="80.2038" rx="2.5" ry="2.5" style="stroke:#181818;stroke-width:0.5;" width="174.1854" x="1282.1006" y="560"/><polygon fill="#F1F1F1" points="1439.286,565,1439.286,579,1451.286,579,1451.286,571,1445.286,565,1439.286,565" style="stroke:#181818;stroke-width:0.5;"/><line style="stroke:#181818;stroke-width:0.5;" x1="1445.286" x2="1445.286" y1="565" y2="571"/><line style="stroke:#181818;stroke-width:0.5;" x1="1451.286" x2="1445.286" y1="571" y2="571"/><text fill="#000000" font-family="sans-serif" font-size="14" lengthAdjust="spacing" textLength="144.1854" x="1292.1006" y="587.9659">&#19981;&#21487;&#21464; Actions artifact</text><text fill="#000000" font-family="sans-serif" font-size="14" lengthAdjust="spacing" textLength="141.1195" x="1292.1006" y="607.0339">payload/ + metadata/</text><text fill="#000000" font-family="sans-serif" font-size="14" lengthAdjust="spacing" textLength="101.3036" x="1292.1006" y="626.1018">&#21547; 301 &#27966;&#29983;&#37197;&#32622;</text></g><!--entity TencentApi--><g class="entity" data-qualified-name="TencentApi" data-source-line="6" id="ent0006"><path d="M353.5208,494.6609 C357.8897,488.9533 362.1598,488.5768 366.9739,494.1289 C372.2118,486.2628 377.7931,486.6281 382.1501,494.9545 C385.4405,487.9562 391.0717,486.7168 395.8043,493.5286 C400.0011,487.1108 405.4955,486.6264 409.4995,493.7239 C414.2628,487.813 418.7361,488.5916 422.301,494.9721 C426.4073,488.6359 431.2488,487.9307 435.5477,494.7786 C445.5096,496.6877 449.9527,501.68 444.291,511.6742 C449.6503,521.5173 447.1664,528.2287 435.3178,529.3224 C432.2851,535.3181 426.4175,535.4977 422.3376,530.5664 C419.3519,536.8761 413.9272,538.4898 409.5241,531.9836 C405.4849,539.9154 399.9593,541.219 394.4414,533.3995 C390.8487,538.9009 384.8867,538.44 381.9097,532.7125 C377.521,539.382 370.6281,539.039 367.9464,531.0828 C363.047,536.862 356.3795,537.136 353.5373,528.9589 C341.7404,527.3116 339.6976,520.7196 346.1786,511.4085 C339.6211,502.3328 344.0223,496.6977 353.5208,494.6609" fill="#F1F1F1" style="stroke:#181818;stroke-width:0.5;"/><text fill="#000000" font-family="sans-serif" font-size="14" lengthAdjust="spacing" textLength="67.8017" x="360.1006" y="516.4659">&#33150;&#35759;&#20113; API</text></g><!--entity Acme--><g class="entity" data-qualified-name="Acme" data-source-line="7" id="ent0007"><path d="M990.0009,536.0748 C994.144,530.245 998.5225,528.5759 1003.1846,535.5399 C1006.749,529.6765 1012.1491,530.2828 1015.6376,535.6241 C1018.713,530.5036 1023.751,529.0615 1027.3163,535.1119 C1030.5017,530.5507 1034.9439,530.035 1038.2715,534.9475 C1042.6923,527.9585 1049.0172,528.4219 1052.1191,536.1855 C1056.3095,530.1147 1061.0867,531.1779 1063.9637,537.4462 C1071.9318,539.5197 1075.3157,545.2236 1068.8212,552.0934 C1076.0291,558.8144 1074.9051,567.8121 1064.2422,569.9506 C1061.454,576.895 1056.7315,576.7621 1052.2108,571.6845 C1050.3091,579.1583 1043.5821,580.2541 1038.811,574.6172 C1035.5793,581.3042 1031.1575,581.3308 1026.1197,576.6301 C1021.8544,580.871 1017.0925,580.4194 1015.6331,573.8965 C1010.1548,579.6037 1005.8049,577.7281 1002.8748,571.2324 C998.2717,577.5574 993.9335,576.1624 989.9198,570.5905 C980.8223,567.2225 979.5185,559.544 987.3973,553.6483 C979.4713,547.4647 981.1924,539.7791 990.0009,536.0748" fill="#F1F1F1" style="stroke:#181818;stroke-width:0.5;"/><text fill="#000000" font-family="sans-serif" font-size="14" lengthAdjust="spacing" textLength="59.7098" x="996.1006" y="557.4659">ACME CA</text></g><!--link Browser to DNS--><g class="link" data-entity-1="ent0002" data-entity-2="ent0003" data-link-type="dependency" data-source-line="17" id="lnk15"><path d="M1068.2306,45 C1133.8606,45 1255.5306,45 1321.0906,45" fill="none" id="Browser-to-DNS" style="stroke:#181818;stroke-width:1;"/><polygon fill="#181818" points="1327.0906,45,1318.0906,41,1322.0906,45,1318.0906,49,1327.0906,45" style="stroke:#181818;stroke-width:1;"/><text fill="#000000" font-family="sans-serif" font-size="13" lengthAdjust="spacing" textLength="55.8871" x="1156.1006" y="40.897">DNS &#26597;&#35810;</text></g><!--link Browser to Nginx--><g class="link" data-entity-1="ent0002" data-entity-2="ent0009" data-link-type="dependency" data-source-line="18" id="lnk16"><path d="M1068.3406,82.69 C1114.7806,126.12 1191.3106,200.7 1249.1006,272 C1264.2406,290.67 1260.9006,301.3 1279.1006,317 C1293.7206,329.61 1307.2191,336.9937 1323.9491,343.8537" fill="none" id="Browser-to-Nginx" style="stroke:#181818;stroke-width:1;"/><polygon fill="#181818" points="1329.5006,346.13,1322.691,339.0146,1324.8744,344.2331,1319.6559,346.4165,1329.5006,346.13" style="stroke:#181818;stroke-width:1;"/><text fill="#000000" font-family="sans-serif" font-size="13" lengthAdjust="spacing" textLength="39.091" x="1164.1006" y="129.897">HTTPS</text></g><!--link Nginx to Releases--><g class="link" data-entity-1="ent0009" data-entity-2="ent0012" data-link-type="dependency" data-source-line="19" id="lnk17"><path d="M1408.6106,359 C1464.0806,359 1561.5306,359 1631.9606,359" fill="none" id="Nginx-to-Releases" style="stroke:#181818;stroke-width:1;"/><polygon fill="#181818" points="1637.9606,359,1628.9606,355,1632.9606,359,1628.9606,363,1637.9606,359" style="stroke:#181818;stroke-width:1;"/><text fill="#000000" font-family="sans-serif" font-size="13" lengthAdjust="spacing" textLength="83.6291" x="1507.2281" y="336.897">&#31934;&#30830; SHA root</text><text fill="#000000" font-family="sans-serif" font-size="13" lengthAdjust="spacing" textLength="117.8841" x="1490.1006" y="354.603">&#21516;&#20195; 301 + &#38745;&#24577;&#25991;&#20214;</text></g><!--link GitHub to Artifact--><g class="link" data-entity-1="ent0004" data-entity-2="ent0005" data-link-type="dependency" data-source-line="20" id="lnk18"><path d="M130.1606,609.74 C195.1906,618.28 301.1906,630 393.1006,630 C393.1006,630 393.1006,630 1027.1006,630 C1114.1706,630 1207.2948,620.9076 1276.1348,612.4976" fill="none" id="GitHub-to-Artifact" style="stroke:#181818;stroke-width:1;"/><polygon fill="#181818" points="1282.0906,611.77,1272.6719,608.8909,1277.1275,612.3763,1273.642,616.8319,1282.0906,611.77" style="stroke:#181818;stroke-width:1;"/><text fill="#000000" font-family="sans-serif" font-size="13" lengthAdjust="spacing" textLength="158.4182" x="611.6281" y="607.897">production job &#37325;&#24314;&#24182;&#37325;&#39564;</text><text fill="#000000" font-family="sans-serif" font-size="13" lengthAdjust="spacing" textLength="187.4732" x="597.1006" y="625.603">&#21516;&#19968; build/ &#23553;&#35013; payload/ + 301</text></g><!--link GitHub to TencentApi--><g class="link" data-entity-1="ent0004" data-entity-2="ent0006" data-link-type="dependency" data-source-line="21" id="lnk19"><path d="M130.4206,583.97 C192.7106,566.66 282.1097,541.8368 339.1697,525.9768" fill="none" id="GitHub-to-TencentApi" style="stroke:#181818;stroke-width:1;"/><polygon fill="#181818" points="344.9506,524.37,335.2081,522.9263,340.1332,525.709,337.3505,530.6341,344.9506,524.37" style="stroke:#181818;stroke-width:1;"/><text fill="#000000" font-family="sans-serif" font-size="13" lengthAdjust="spacing" textLength="104.8971" x="185.5926" y="509.897">InvokeCommand</text><text fill="#000000" font-family="sans-serif" font-size="13" lengthAdjust="spacing" textLength="153.8812" x="161.1006" y="527.603">(run/artifact, SHA, digest)</text></g><!--link TencentApi to Tat--><g class="link" data-entity-1="ent0006" data-entity-2="ent0010" data-link-type="dependency" data-source-line="22" id="lnk20"><path d="M443.4006,503.46 C496.8406,495.11 576.7225,482.6365 631.6225,474.0565" fill="none" id="TencentApi-to-Tat" style="stroke:#181818;stroke-width:1;"/><polygon fill="#181818" points="637.5506,473.13,628.0409,470.5677,632.6105,473.902,629.2761,478.4717,637.5506,473.13" style="stroke:#181818;stroke-width:1;"/><text fill="#000000" font-family="sans-serif" font-size="13" lengthAdjust="spacing" textLength="91.0001" x="474.1006" y="481.897">&#25351;&#23450;&#23454;&#20363;&#19982;&#21629;&#20196;</text></g><!--link Tat to Deploy--><g class="link" data-entity-1="ent0010" data-entity-2="ent0011" data-link-type="dependency" data-source-line="23" id="lnk21"><path d="M743.7106,460.16 C803.3406,454.61 894.9063,446.1053 958.0563,440.2353" fill="none" id="Tat-to-Deploy" style="stroke:#181818;stroke-width:1;"/><polygon fill="#181818" points="964.0306,439.68,954.699,436.5302,959.052,440.1428,955.4394,444.4958,964.0306,439.68" style="stroke:#181818;stroke-width:1;"/><text fill="#000000" font-family="sans-serif" font-size="13" lengthAdjust="spacing" textLength="117.0001" x="816.1006" y="439.897">&#20165;&#20256;&#20837;&#22266;&#23450;&#21457;&#24067;&#21442;&#25968;</text></g><!--link Deploy to Artifact--><g class="link" data-entity-1="ent0011" data-entity-2="ent0005" data-link-type="dependency" data-source-line="24" id="lnk22"><path d="M1088.1806,462.48 C1098.1606,467.05 1108.4006,471.69 1118.1006,476 C1175.9606,501.71 1192.4106,503.8 1249.1006,532 C1266.2506,540.53 1279.1644,547.4549 1295.9644,557.0049" fill="none" id="Deploy-to-Artifact" style="stroke:#181818;stroke-width:1;"/><polygon fill="#181818" points="1301.1806,559.97,1295.3331,552.0449,1296.8338,557.4991,1291.3796,558.9997,1301.1806,559.97" style="stroke:#181818;stroke-width:1;"/><text fill="#000000" font-family="sans-serif" font-size="13" lengthAdjust="spacing" textLength="104.0001" x="1131.6006" y="471.897">&#35835;&#21462;&#20803;&#25968;&#25454;&#24182;&#19979;&#36733;</text></g><!--link Deploy to Releases--><g class="link" data-entity-1="ent0011" data-entity-2="ent0012" data-link-type="dependency" data-source-line="25" id="lnk23"><path d="M1038.1106,399.8 C1051.5006,363.32 1077.5006,306.17 1118.1006,272 C1176.1806,223.12 1204.2906,227.85 1279.1006,215 C1357.9406,201.45 1381.7706,194.5 1459.1006,215 C1536.1706,235.43 1609.4402,281.9682 1657.9602,317.2982" fill="none" id="Deploy-to-Releases" style="stroke:#181818;stroke-width:1;"/><polygon fill="#181818" points="1662.8106,320.83,1657.8895,312.2987,1658.7686,317.8868,1653.1804,318.7659,1662.8106,320.83" style="stroke:#181818;stroke-width:1;"/><text fill="#000000" font-family="sans-serif" font-size="13" lengthAdjust="spacing" textLength="178.6332" x="1280.1006" y="198.897">&#26657;&#39564;&#21518;&#23433;&#35013; payload/ + config/</text></g><!--link Deploy to UrlLedger--><g class="link" data-entity-1="ent0011" data-entity-2="ent0014" data-link-type="dependency" data-source-line="26" id="lnk24"><path d="M1084.955,396.819 C1097.335,389.279 1105.4706,384.68 1118.1006,378 C1184.7406,342.76 1259.146,310.5129 1310.386,289.3229" fill="none" id="Deploy-UrlLedger" style="stroke:#181818;stroke-width:1;"/><polygon fill="#181818" points="1079.8306,399.94,1089.5978,398.6748,1084.1009,397.3392,1085.4365,391.8422,1079.8306,399.94" style="stroke:#181818;stroke-width:1;"/><polygon fill="#181818" points="1315.9306,287.03,1306.0851,286.773,1311.3101,288.9408,1309.1423,294.1658,1315.9306,287.03" style="stroke:#181818;stroke-width:1;"/><text fill="#000000" font-family="sans-serif" font-size="13" lengthAdjust="spacing" textLength="78.0001" x="1144.6006" y="294.897">&#21482;&#36861;&#21152;&#26292;&#38706;&#36793;</text><text fill="#000000" font-family="sans-serif" font-size="13" lengthAdjust="spacing" textLength="78.0001" x="1144.6006" y="312.603">&#26657;&#39564;&#21382;&#21490;&#25910;&#25947;</text></g><!--link Deploy to Current--><g class="link" data-entity-1="ent0011" data-entity-2="ent0013" data-link-type="dependency" data-source-line="27" id="lnk25"><path d="M1088.4606,438.14 C1148.9506,442.22 1235.0942,448.0261 1296.8942,452.1961" fill="none" id="Deploy-to-Current" style="stroke:#181818;stroke-width:1;"/><polygon fill="#181818" points="1302.8806,452.6,1294.1703,448.0032,1297.8919,452.2634,1293.6317,455.985,1302.8806,452.6" style="stroke:#181818;stroke-width:1;"/><text fill="#000000" font-family="sans-serif" font-size="13" lengthAdjust="spacing" textLength="52.0001" x="1157.6586" y="400.897">&#25972;&#29256;&#36873;&#25321;</text><text fill="#000000" font-family="sans-serif" font-size="13" lengthAdjust="spacing" textLength="129.1161" x="1119.1006" y="418.603">&#27979;&#35797;&#12289;reload&#12289;&#20860;&#23481;&#22238;&#28378;</text><text fill="#000000" font-family="sans-serif" font-size="13" lengthAdjust="spacing" textLength="95.0301" x="1136.1436" y="436.309">&#25110; forward-only</text></g><!--link Current to Releases--><g class="link" data-entity-1="ent0013" data-entity-2="ent0012" data-link-type="dependency" data-source-line="28" id="lnk26"><path d="M1435.1406,459.34 C1493.0006,442.73 1571.8032,399.1145 1632.1432,381.8045" fill="none" id="Current-to-Releases" style="stroke:#181818;stroke-width:1;"/><polygon fill="#181818" points="1637.9106,380.15,1628.1565,378.7869,1633.1044,381.5288,1630.3625,386.4767,1637.9106,380.15" style="stroke:#181818;stroke-width:1;"/><text fill="#000000" font-family="sans-serif" font-size="13" lengthAdjust="spacing" textLength="80.4571" x="1508.6006" y="386.897">&#25351;&#21521;&#27963;&#21160; SHA</text></g><!--link Acme to Nginx--><g class="link" data-entity-1="ent0007" data-entity-2="ent0009" data-link-type="dependency" data-source-line="29" id="lnk27"><path d="M1071.4006,568.98 C1120.6106,584.67 1199.6506,599.95 1249.1006,559 C1304.1506,513.42 1235.3506,457.52 1279.1006,401 C1291.4406,385.06 1305.656,376.8964 1323.496,370.5664" fill="none" id="Acme-to-Nginx" style="stroke:#181818;stroke-width:1;"/><polygon fill="#181818" points="1329.1506,368.56,1319.3311,367.7998,1324.4384,370.232,1322.0062,375.3393,1329.1506,368.56" style="stroke:#181818;stroke-width:1;"/><text fill="#000000" font-family="sans-serif" font-size="13" lengthAdjust="spacing" textLength="119.3921" x="1124.1006" y="554.897">HTTP-01 &#19982;&#35777;&#20070;&#32493;&#26399;</text></g><?plantuml-src PLDTRn9157tVNp7XIQC4ZM_6c60rraHDq-8RBrjsYglB31cMriQOK1NxIHVI3xMj_R3Qrg-bQMYbRC4Vuywm_0llph8AzOKCU-uvzzupPmmyPYAJ8gQd7vj8qnbEcJebYfeoAKCHp_xLUMjxXQ8ujhpz6Vx-88BK7Bh5w4GECoLbqBo68hSVZWnHJI9m3B_UrSt1_6YIkCuIRoovzKKKbzevMHYWYifCVGoQeOXRBt6hogrtOHaAiIJ9gfC6LRKOkeGos5GrrLHZISBBtz2rArUHgBNQorkTOgdTjALsl4iC9_6ABS-kkeqAYW_TanK9J5AOcF6i7jR41nxSGGFnW9_AO8LG3VjJpOdZdrxJwKnRlB7SNZuG6oK-jnCwCOBPE6RekO9GYcQob80gYZnCw-IPnEMf7qp44qXDmp6OH3NxOKQf6QKJ16kmuNg3sslSgl3wA-_rcjZu7fYCimQT1DeODJJe7c7Om6eEvs8tSe_Lctr-fIWPqzCnoHlkblKmKtd6_BQvoOoXawT94jZexU-ApR9uUz8fpBhEhcGF1AL0zlqV1Q7-OHyDtqTYhTRPEF9gU-6eZvXn7sjfoCeBHUd61aMZD_sWeEloLsnzzgeV-q3f6i23YSJGY1Byyx-72m3KFcgrTsmqCXX7_X1-6XPWKXc8IwZpuRqeJ8dLQTSvKOAeIO4m6I2GPLJBowIX9tGKTQPBt6dmqnCuTBuk17hr0XhDwmOOoG-dlDqYwZ4M6lKg_qiKQDyZu_Gf7g2PZ4h0cGiiJs9XcY_xCr-6fvR6EVEYqiEJCge_crYOzk_TtdHRy_1mUANfEfyK7vFMoUk7CjSfkcVRlFYvDoVSUYbM3fLkqRcblQh3hLLUV0KbecJ3kcvztcisUyjxJ1RRE-05BozoU_RS-jrSXSGRFlFlPGELMr-zNqq-jzsDHEiqIRfoYs-uTIIMJyJAUc_VRhxyjYkrzkmCH4_CVm7MyRnNNVbTc8AKGtCuyE8Pjq_v-gPmrW2VMOKuimcLQL5AZ4ab53g_39XQheYQm-SE_3jG_6V-NzoYa1-mtAjEkQTxRUU7sDZw0m00?></g></svg>